<?xml version="1.0" encoding="UTF-8" standalone="no"?><svg xmlns="http://www.w3.org/2000/svg" xmlns:xlink="http://www.w3.org/1999/xlink" contentStyleType="text/css" height="577px" preserveAspectRatio="none" style="width:675px;height:577px;background:#FFFFFF;" version="1.1" viewBox="0 0 675 577" width="675px" zoomAndPan="magnify"><defs/><g><ellipse cx="350.96" cy="16" fill="#222222" rx="10" ry="10" style="stroke:none;stroke-width:1.0;"/><g id="Idle"><rect fill="#F1F1F1" height="50" rx="12.5" ry="12.5" style="stroke:#181818;stroke-width:0.5;" width="50" x="325.96" y="87"/><line style="stroke:#181818;stroke-width:0.5;" x1="325.96" x2="375.96" y1="114.6094" y2="114.6094"/><text fill="#000000" font-family="sans-serif" font-size="14" lengthAdjust="spacing" textLength="22" x="339.96" y="106.5332">Idle</text></g><g id="Init"><rect fill="#F1F1F1" height="50" rx="12.5" ry="12.5" style="stroke:#181818;stroke-width:0.5;" width="50" x="97.96" y="215"/><line style="stroke:#181818;stroke-width:0.5;" x1="97.96" x2="147.96" y1="242.6094" y2="242.6094"/><text fill="#000000" font-family="sans-serif" font-size="14" lengthAdjust="spacing" textLength="18" x="113.96" y="234.5332">Init</text></g><g id="elem_GMN15"><path d="M141.46,90.5 L141.46,133.2031 A0,0 0 0 0 141.46,133.2031 L290.46,133.2031 A0,0 0 0 0 290.46,133.2031 L290.46,116 L325.96,112 L290.46,108 L290.46,100.5 L280.46,90.5 L141.46,90.5 A0,0 0 0 0 141.46,90.5 " fill="#FEFFDD" style="stroke:#181818;stroke-width:0.5;"/><path d="M280.46,90.5 L280.46,100.5 L290.46,100.5 L280.46,90.5 " fill="#FEFFDD" style="stroke:#181818;stroke-width:0.5;"/><text fill="#000000" font-family="sans-serif" font-size="13" lengthAdjust="spacing" textLength="128" x="147.46" y="108.9951">InOperation := FALSE</text><text fill="#000000" font-family="sans-serif" font-size="13" lengthAdjust="spacing" textLength="90" x="147.46" y="125.3467">Error := FALSE</text></g><g id="Error"><rect fill="#F1F1F1" height="50" rx="12.5" ry="12.5" style="stroke:#181818;stroke-width:0.5;" width="52" x="216.96" y="521"/><line style="stroke:#181818;stroke-width:0.5;" x1="216.96" x2="268.96" y1="548.6094" y2="548.6094"/><text fill="#000000" font-family="sans-serif" font-size="14" lengthAdjust="spacing" textLength="32" x="226.96" y="540.5332">Error</text></g><g id="elem_GMN22"><path d="M183.46,218.5 L183.46,236 L148.01,240 L183.46,244 L183.46,261.2031 A0,0 0 0 0 183.46,261.2031 L332.46,261.2031 A0,0 0 0 0 332.46,261.2031 L332.46,228.5 L322.46,218.5 L183.46,218.5 A0,0 0 0 0 183.46,218.5 " fill="#FEFFDD" style="stroke:#181818;stroke-width:0.5;"/><path d="M322.46,218.5 L322.46,228.5 L332.46,228.5 L322.46,218.5 " fill="#FEFFDD" style="stroke:#181818;stroke-width:0.5;"/><text fill="#000000" font-family="sans-serif" font-size="13" lengthAdjust="spacing" textLength="128" x="189.46" y="236.9951">InOperation := FALSE</text><text fill="#000000" font-family="sans-serif" font-size="13" lengthAdjust="spacing" textLength="90" x="189.46" y="253.3467">Error := FALSE</text></g><g id="elem_GMN27"><path d="M423.46,371.5 L423.46,389 L388.07,393 L423.46,397 L423.46,414.2031 A0,0 0 0 0 423.46,414.2031 L564.46,414.2031 A0,0 0 0 0 564.46,414.2031 L564.46,381.5 L554.46,371.5 L423.46,371.5 A0,0 0 0 0 423.46,371.5 " fill="#FEFFDD" style="stroke:#181818;stroke-width:0.5;"/><path d="M554.46,371.5 L554.46,381.5 L564.46,381.5 L554.46,371.5 " fill="#FEFFDD" style="stroke:#181818;stroke-width:0.5;"/><text fill="#000000" font-family="sans-serif" font-size="13" lengthAdjust="spacing" textLength="120" x="429.46" y="389.9951">InOperation := TRUE</text><text fill="#000000" font-family="sans-serif" font-size="13" lengthAdjust="spacing" textLength="90" x="429.46" y="406.3467">Error := FALSE</text></g><g id="elem_GMN31"><path d="M32.46,524.5 L32.46,567.2031 A0,0 0 0 0 32.46,567.2031 L181.46,567.2031 A0,0 0 0 0 181.46,567.2031 L181.46,550 L216.59,546 L181.46,542 L181.46,534.5 L171.46,524.5 L32.46,524.5 A0,0 0 0 0 32.46,524.5 " fill="#FEFFDD" style="stroke:#181818;stroke-width:0.5;"/><path d="M171.46,524.5 L171.46,534.5 L181.46,534.5 L171.46,524.5 " fill="#FEFFDD" style="stroke:#181818;stroke-width:0.5;"/><text fill="#000000" font-family="sans-serif" font-size="13" lengthAdjust="spacing" textLength="128" x="38.46" y="542.9951">InOperation := FALSE</text><text fill="#000000" font-family="sans-serif" font-size="13" lengthAdjust="spacing" textLength="82" x="38.46" y="559.3467">Error := TRUE</text></g><path d="M110.46,343 L375.96,343 A12.5,12.5 0 0 1 388.46,355.5 L388.46,370.6094 L97.96,370.6094 L97.96,355.5 A12.5,12.5 0 0 1 110.46,343 " fill="#F1F1F1" style="stroke:#F1F1F1;stroke-width:1.0;"/><rect fill="none" height="99.6094" rx="12.5" ry="12.5" style="stroke:#181818;stroke-width:0.5;" width="290.5" x="97.96" y="343"/><line style="stroke:#181818;stroke-width:0.5;" x1="97.96" x2="388.46" y1="370.6094" y2="370.6094"/><text fill="#000000" font-family="sans-serif" font-size="14" lengthAdjust="spacing" textLength="30" x="228.21" y="362.5332">InOp</text><g id="InOp.LevelLow"><rect fill="#F1F1F1" height="50" rx="12.5" ry="12.5" style="stroke:#181818;stroke-width:0.5;" width="79" x="109.96" y="382.6094"/><line style="stroke:#181818;stroke-width:0.5;" x1="109.96" x2="188.96" y1="410.2188" y2="410.2188"/><text fill="#000000" font-family="sans-serif" font-size="14" lengthAdjust="spacing" textLength="59" x="119.96" y="402.1426">LevelLow</text></g><g id="InOp.LevelOk"><rect fill="#F1F1F1" height="50" rx="12.5" ry="12.5" style="stroke:#181818;stroke-width:0.5;" width="72" x="207.46" y="382.6094"/><line style="stroke:#181818;stroke-width:0.5;" x1="207.46" x2="279.46" y1="410.2188" y2="410.2188"/><text fill="#000000" font-family="sans-serif" font-size="14" lengthAdjust="spacing" textLength="52" x="217.46" y="402.1426">LevelOk</text></g><g id="InOp.LevelHigh"><rect fill="#F1F1F1" height="50" rx="12.5" ry="12.5" style="stroke:#181818;stroke-width:0.5;" width="82" x="297.46" y="382.6094"/><line style="stroke:#181818;stroke-width:0.5;" x1="297.46" x2="379.46" y1="410.2188" y2="410.2188"/><text fill="#000000" font-family="sans-serif" font-size="14" lengthAdjust="spacing" textLength="62" x="307.46" y="402.1426">LevelHigh</text></g><!--MD5=[ad3fb338fe8a9fed1de1e2f6117f2053]
link LevelLow to LevelOk--><g id="link_LevelLow_LevelOk"><path d="M189.12,425.8994 C193.49,426.4494 197.86,426.5094 202.24,426.0794 " fill="none" id="LevelLow-to-LevelOk" style="stroke:#181818;stroke-width:1.0;"/><polygon fill="#181818" points="207.37,425.3494,197.898,422.6509,202.4194,426.0505,199.0198,430.5718,207.37,425.3494" style="stroke:#181818;stroke-width:1.0;"/></g><!--MD5=[c458c6d3dccccfb62112cc8b3a9368bf]
link LevelOk to LevelLow--><g id="link_LevelOk_LevelLow"><path d="M207.37,389.8694 C203,389.0594 198.62,388.7394 194.25,388.8994 " fill="none" id="LevelOk-to-LevelLow" style="stroke:#181818;stroke-width:1.0;"/><polygon fill="#181818" points="189.12,389.3194,198.4111,392.5868,194.104,388.9195,197.7713,384.6124,189.12,389.3194" style="stroke:#181818;stroke-width:1.0;"/></g><!--MD5=[f66bd399e5eac11f861ea04d7b5da466]
link LevelOk to LevelHigh--><g id="link_LevelOk_LevelHigh"><path d="M279.83,425.3294 C283.91,426.0794 287.99,426.4194 292.07,426.3494 " fill="none" id="LevelOk-to-LevelHigh" style="stroke:#181818;stroke-width:1.0;"/><polygon fill="#181818" points="297.23,426.0294,288.0066,422.5756,292.239,426.3288,288.4857,430.5612,297.23,426.0294" style="stroke:#181818;stroke-width:1.0;"/></g><!--MD5=[76e26c48b25f5242ea46c4e57fa602dc]
link LevelHigh to LevelOk--><g id="link_LevelHigh_LevelOk"><path d="M297.23,389.1894 C293.15,388.7594 289.07,388.7494 284.99,389.1594 " fill="none" id="LevelHigh-to-LevelOk" style="stroke:#181818;stroke-width:1.0;"/><polygon fill="#181818" points="279.83,389.8894,289.3009,392.5917,284.7809,389.1903,288.1823,384.6703,279.83,389.8894" style="stroke:#181818;stroke-width:1.0;"/></g><!--MD5=[38f1f8b7f214ff6bc6d4b705f682283d]
link *start to Idle--><g id="link_*start_Idle"><path d="M350.96,26.01 C350.96,38.7 350.96,62.41 350.96,81.57 " fill="none" id="*start-to-Idle" style="stroke:#181818;stroke-width:1.0;"/><polygon fill="#181818" points="350.96,86.84,354.96,77.84,350.96,81.84,346.96,77.84,350.96,86.84" style="stroke:#181818;stroke-width:1.0;"/></g><!--MD5=[c483c4ae74fec926d59f0822b1f495e5]
link Idle to Init--><g id="link_Idle_Init"><path d="M325.52,128.46 C319.86,131.54 313.8,134.57 307.96,137 C263.14,155.62 245.42,143.5 202.96,167 C182.31,178.43 162.56,196.11 147.86,211.08 " fill="none" id="Idle-to-Init" style="stroke:#181818;stroke-width:1.0;"/><polygon fill="#181818" points="144.23,214.83,153.3639,211.1461,147.7078,211.2377,147.6162,205.5816,144.23,214.83" style="stroke:#181818;stroke-width:1.0;"/><text fill="#000000" font-family="sans-serif" font-size="13" lengthAdjust="spacing" textLength="51" x="203.96" y="181.4951">Enable①</text></g><!--MD5=[4cf3ed16f9df6a98504c3b6d2576f49d]
link Init to Idle--><g id="link_Init_Idle"><path d="M148,223.92 C153.78,220.75 160,217.58 165.96,215 C206.19,197.56 221.25,205.61 259.96,185 C282.44,173.03 304.91,155.32 321.9,140.46 " fill="none" id="Init-to-Idle" style="stroke:#181818;stroke-width:1.0;"/><polygon fill="#181818" points="325.66,137.14,316.2646,140.0941,321.9104,140.4476,321.5568,146.0934,325.66,137.14" style="stroke:#181818;stroke-width:1.0;"/><text fill="#000000" font-family="sans-serif" font-size="13" lengthAdjust="spacing" textLength="51" x="287.96" y="181.4951">Enable⓪</text></g><!--MD5=[9b2089483e046c7da07ed58cc10578b5]
link Init to Error--><g id="link_Init_Error"><path d="M97.65,259.58 C75.04,277.89 43.46,308.14 29.96,343 C13.9,384.44 6,405.56 29.96,443 C74.54,512.68 125.05,483.84 198.96,521 C203.18,523.12 207.6,525.43 211.93,527.74 " fill="none" id="Init-to-Error" style="stroke:#181818;stroke-width:1.0;"/><polygon fill="#181818" points="216.58,530.24,210.5446,522.457,212.1754,527.8738,206.7586,529.5045,216.58,530.24" style="stroke:#181818;stroke-width:1.0;"/><text fill="#000000" font-family="sans-serif" font-size="13" lengthAdjust="spacing" textLength="48" x="30.96" y="398.4951">SetError</text></g><!--MD5=[f440e933f9adc1f3fb1d6aa11db3ea69]
link Init to InOp--><g id="link_Init_InOp"><path d="M142.24,265.26 C157.96,285.04 180.74,313.72 200.67,338.78 " fill="none" id="Init-to-InOp" style="stroke:#181818;stroke-width:1.0;"/><polygon fill="#181818" points="203.84,342.78,201.3667,333.2467,200.727,338.8673,195.1064,338.2276,203.84,342.78" style="stroke:#181818;stroke-width:1.0;"/></g><!--MD5=[1200c82a96c19d207352e5539b3ae2a9]
link InOp to Idle--><g id="link_InOp_Idle"><path d="M298.37,342.73 C318.65,321.13 339.23,294.08 349.96,265 C364.89,224.51 361.15,173.72 356.5,142.32 " fill="none" id="InOp-to-Idle" style="stroke:#181818;stroke-width:1.0;"/><polygon fill="#181818" points="355.69,137.07,353.0988,146.5719,356.4471,142.0124,361.0066,145.3606,355.69,137.07" style="stroke:#181818;stroke-width:1.0;"/><text fill="#000000" font-family="sans-serif" font-size="13" lengthAdjust="spacing" textLength="51" x="359.96" y="245.4951">Enable⓪</text></g><!--MD5=[5d13da41f4a119d5370f98a57bc14637]
link InOp to Error--><g id="link_InOp_Error"><path d="M242.96,443.03 C242.96,467 242.96,495.05 242.96,515.66 " fill="none" id="InOp-to-Error" style="stroke:#181818;stroke-width:1.0;"/><polygon fill="#181818" points="242.96,520.73,246.96,511.73,242.96,515.73,238.96,511.73,242.96,520.73" style="stroke:#181818;stroke-width:1.0;"/><text fill="#000000" font-family="sans-serif" font-size="13" lengthAdjust="spacing" textLength="48" x="243.96" y="487.4951">SetError</text></g><!--MD5=[7d364e43dace9a2f8df92504d800134c]
link Error to Idle--><g id="link_Error_Idle"><path d="M269.17,541.16 C341.94,529.91 543.64,494.54 581.96,443 C668.99,325.93 460.82,180.54 380.74,130.71 " fill="none" id="Error-to-Idle" style="stroke:#181818;stroke-width:1.0;"/><polygon fill="#181818" points="376.11,127.85,381.6664,135.9818,380.3644,130.4769,385.8693,129.1748,376.11,127.85" style="stroke:#181818;stroke-width:1.0;"/><text fill="#000000" font-family="sans-serif" font-size="13" lengthAdjust="spacing" textLength="51" x="581.96" y="309.4951">Enable⓪</text></g><!--MD5=[f08d7b78b151dd4e2492434582b5a0cf]
@startuml

state InOp {
    LevelLow -> LevelOk
    LevelOk -> LevelLow
    LevelOk -> LevelHigh
    LevelHigh -> LevelOk
}

[*] - -> Idle
Idle - -> Init : Enable①
note left of Idle
    InOperation := FALSE
    Error := FALSE
end note

Init - -> Idle : Enable⓪
Init - -> Error : SetError
Init - -> InOp
note right of Init
    InOperation := FALSE
    Error := FALSE
end note

InOp - -> Idle : Enable⓪
InOp - -> Error : SetError
note right of InOp
    InOperation := TRUE
    Error := FALSE
end note

Error - -> Idle : Enable⓪
note left of Error
    InOperation := FALSE
    Error := TRUE
end note


@enduml

PlantUML version 1.2022.7(Mon Aug 22 19:01:30 CEST 2022)
(GPL source distribution)
Java Runtime: Java(TM) SE Runtime Environment
JVM: Java HotSpot(TM) 64-Bit Server VM
Default Encoding: Cp1252
Language: en
Country: US
--></g></svg>