<?xml version="1.0" encoding="UTF-8" standalone="no"?><svg xmlns="http://www.w3.org/2000/svg" xmlns:xlink="http://www.w3.org/1999/xlink" contentStyleType="text/css" height="655px" preserveAspectRatio="none" style="width:921px;height:655px;background:#FFFFFF;" version="1.1" viewBox="0 0 921 655" width="921px" zoomAndPan="magnify"><defs/><g><ellipse cx="385.5" cy="16" fill="#222222" rx="10" ry="10" style="stroke:none;stroke-width:1.0;"/><g id="Idle"><rect fill="#F1F1F1" height="50" rx="12.5" ry="12.5" style="stroke:#181818;stroke-width:0.5;" width="50" x="360.5" y="87"/><line style="stroke:#181818;stroke-width:0.5;" x1="360.5" x2="410.5" y1="114.6094" y2="114.6094"/><text fill="#000000" font-family="sans-serif" font-size="14" lengthAdjust="spacing" textLength="22" x="374.5" y="106.5332">Idle</text></g><g id="Init"><rect fill="#F1F1F1" height="50" rx="12.5" ry="12.5" style="stroke:#181818;stroke-width:0.5;" width="50" x="386.5" y="215"/><line style="stroke:#181818;stroke-width:0.5;" x1="386.5" x2="436.5" y1="242.6094" y2="242.6094"/><text fill="#000000" font-family="sans-serif" font-size="14" lengthAdjust="spacing" textLength="18" x="402.5" y="234.5332">Init</text></g><g id="elem_GMN7"><path d="M176,90.5 L176,133.2031 A0,0 0 0 0 176,133.2031 L325,133.2031 A0,0 0 0 0 325,133.2031 L325,116 L360.5,112 L325,108 L325,100.5 L315,90.5 L176,90.5 A0,0 0 0 0 176,90.5 " fill="#FEFFDD" style="stroke:#181818;stroke-width:0.5;"/><path d="M315,90.5 L315,100.5 L325,100.5 L315,90.5 " fill="#FEFFDD" style="stroke:#181818;stroke-width:0.5;"/><text fill="#000000" font-family="sans-serif" font-size="13" lengthAdjust="spacing" textLength="128" x="182" y="108.9951">InOperation := FALSE</text><text fill="#000000" font-family="sans-serif" font-size="13" lengthAdjust="spacing" textLength="90" x="182" y="125.3467">Error := FALSE</text></g><g id="Error"><rect fill="#F1F1F1" height="50" rx="12.5" ry="12.5" style="stroke:#181818;stroke-width:0.5;" width="52" x="477.5" y="599"/><line style="stroke:#181818;stroke-width:0.5;" x1="477.5" x2="529.5" y1="626.6094" y2="626.6094"/><text fill="#000000" font-family="sans-serif" font-size="14" lengthAdjust="spacing" textLength="32" x="487.5" y="618.5332">Error</text></g><g id="InOpLevelOk"><rect fill="#F1F1F1" height="50" rx="12.5" ry="12.5" style="stroke:#181818;stroke-width:0.5;" width="102" x="297.5" y="343"/><line style="stroke:#181818;stroke-width:0.5;" x1="297.5" x2="399.5" y1="370.6094" y2="370.6094"/><text fill="#000000" font-family="sans-serif" font-size="14" lengthAdjust="spacing" textLength="82" x="307.5" y="362.5332">InOpLevelOk</text></g><g id="InOpLevelLow"><rect fill="#F1F1F1" height="50" rx="12.5" ry="12.5" style="stroke:#181818;stroke-width:0.5;" width="109" x="7" y="471"/><line style="stroke:#181818;stroke-width:0.5;" x1="7" x2="116" y1="498.6094" y2="498.6094"/><text fill="#000000" font-family="sans-serif" font-size="14" lengthAdjust="spacing" textLength="89" x="17" y="490.5332">InOpLevelLow</text></g><g id="InOpLevelHigh"><rect fill="#F1F1F1" height="50" rx="12.5" ry="12.5" style="stroke:#181818;stroke-width:0.5;" width="112" x="447.5" y="471"/><line style="stroke:#181818;stroke-width:0.5;" x1="447.5" x2="559.5" y1="498.6094" y2="498.6094"/><text fill="#000000" font-family="sans-serif" font-size="14" lengthAdjust="spacing" textLength="92" x="457.5" y="490.5332">InOpLevelHigh</text></g><g id="elem_GMN19"><path d="M472,218.5 L472,236 L436.55,240 L472,244 L472,261.2031 A0,0 0 0 0 472,261.2031 L621,261.2031 A0,0 0 0 0 621,261.2031 L621,228.5 L611,218.5 L472,218.5 A0,0 0 0 0 472,218.5 " fill="#FEFFDD" style="stroke:#181818;stroke-width:0.5;"/><path d="M611,218.5 L611,228.5 L621,228.5 L611,218.5 " fill="#FEFFDD" style="stroke:#181818;stroke-width:0.5;"/><text fill="#000000" font-family="sans-serif" font-size="13" lengthAdjust="spacing" textLength="128" x="478" y="236.9951">InOperation := FALSE</text><text fill="#000000" font-family="sans-serif" font-size="13" lengthAdjust="spacing" textLength="90" x="478" y="253.3467">Error := FALSE</text></g><g id="elem_GMN26"><path d="M435,346.5 L435,364 L399.71,368 L435,372 L435,389.2031 A0,0 0 0 0 435,389.2031 L576,389.2031 A0,0 0 0 0 576,389.2031 L576,356.5 L566,346.5 L435,346.5 A0,0 0 0 0 435,346.5 " fill="#FEFFDD" style="stroke:#181818;stroke-width:0.5;"/><path d="M566,346.5 L566,356.5 L576,356.5 L566,346.5 " fill="#FEFFDD" style="stroke:#181818;stroke-width:0.5;"/><text fill="#000000" font-family="sans-serif" font-size="13" lengthAdjust="spacing" textLength="120" x="441" y="364.9951">InOperation := TRUE</text><text fill="#000000" font-family="sans-serif" font-size="13" lengthAdjust="spacing" textLength="90" x="441" y="381.3467">Error := FALSE</text></g><g id="elem_GMN32"><path d="M151,474.5 L151,492 L116.19,496 L151,500 L151,517.2031 A0,0 0 0 0 151,517.2031 L292,517.2031 A0,0 0 0 0 292,517.2031 L292,484.5 L282,474.5 L151,474.5 A0,0 0 0 0 151,474.5 " fill="#FEFFDD" style="stroke:#181818;stroke-width:0.5;"/><path d="M282,474.5 L282,484.5 L292,484.5 L282,474.5 " fill="#FEFFDD" style="stroke:#181818;stroke-width:0.5;"/><text fill="#000000" font-family="sans-serif" font-size="13" lengthAdjust="spacing" textLength="120" x="157" y="492.9951">InOperation := TRUE</text><text fill="#000000" font-family="sans-serif" font-size="13" lengthAdjust="spacing" textLength="90" x="157" y="509.3467">Error := FALSE</text></g><g id="elem_GMN38"><path d="M595,474.5 L595,492 L559.5,496 L595,500 L595,517.2031 A0,0 0 0 0 595,517.2031 L736,517.2031 A0,0 0 0 0 736,517.2031 L736,484.5 L726,474.5 L595,474.5 A0,0 0 0 0 595,474.5 " fill="#FEFFDD" style="stroke:#181818;stroke-width:0.5;"/><path d="M726,474.5 L726,484.5 L736,484.5 L726,474.5 " fill="#FEFFDD" style="stroke:#181818;stroke-width:0.5;"/><text fill="#000000" font-family="sans-serif" font-size="13" lengthAdjust="spacing" textLength="120" x="601" y="492.9951">InOperation := TRUE</text><text fill="#000000" font-family="sans-serif" font-size="13" lengthAdjust="spacing" textLength="90" x="601" y="509.3467">Error := FALSE</text></g><g id="elem_GMN42"><path d="M293,602.5 L293,645.2031 A0,0 0 0 0 293,645.2031 L442,645.2031 A0,0 0 0 0 442,645.2031 L442,628 L477.13,624 L442,620 L442,612.5 L432,602.5 L293,602.5 A0,0 0 0 0 293,602.5 " fill="#FEFFDD" style="stroke:#181818;stroke-width:0.5;"/><path d="M432,602.5 L432,612.5 L442,612.5 L432,602.5 " fill="#FEFFDD" style="stroke:#181818;stroke-width:0.5;"/><text fill="#000000" font-family="sans-serif" font-size="13" lengthAdjust="spacing" textLength="128" x="299" y="620.9951">InOperation := FALSE</text><text fill="#000000" font-family="sans-serif" font-size="13" lengthAdjust="spacing" textLength="82" x="299" y="637.3467">Error := TRUE</text></g><!--MD5=[38f1f8b7f214ff6bc6d4b705f682283d]
link *start to Idle--><g id="link_*start_Idle"><path d="M385.5,26.01 C385.5,38.7 385.5,62.41 385.5,81.57 " fill="none" id="*start-to-Idle" style="stroke:#181818;stroke-width:1.0;"/><polygon fill="#181818" points="385.5,86.84,389.5,77.84,385.5,81.84,381.5,77.84,385.5,86.84" style="stroke:#181818;stroke-width:1.0;"/></g><!--MD5=[c483c4ae74fec926d59f0822b1f495e5]
link Idle to Init--><g id="link_Idle_Init"><path d="M360.21,130.86 C343.55,144.98 326.5,165.49 336.5,185 C345.99,203.54 365.14,217.16 381.71,226.08 " fill="none" id="Idle-to-Init" style="stroke:#181818;stroke-width:1.0;"/><polygon fill="#181818" points="386.31,228.48,380.1759,220.7746,381.8756,226.1701,376.4801,227.8697,386.31,228.48" style="stroke:#181818;stroke-width:1.0;"/><text fill="#000000" font-family="sans-serif" font-size="13" lengthAdjust="spacing" textLength="51" x="337.5" y="181.4951">Enable①</text></g><!--MD5=[4cf3ed16f9df6a98504c3b6d2576f49d]
link Init to Idle--><g id="link_Init_Idle"><path d="M406.5,214.78 C402.24,194.15 396.11,164.43 391.57,142.43 " fill="none" id="Init-to-Idle" style="stroke:#181818;stroke-width:1.0;"/><polygon fill="#181818" points="390.51,137.29,388.3904,146.9081,391.5098,142.189,396.2289,145.3084,390.51,137.29" style="stroke:#181818;stroke-width:1.0;"/><text fill="#000000" font-family="sans-serif" font-size="13" lengthAdjust="spacing" textLength="51" x="401.5" y="181.4951">Enable⓪</text></g><!--MD5=[9b2089483e046c7da07ed58cc10578b5]
link Init to Error--><g id="link_Init_Error"><path d="M436.53,256.09 C442.32,259.26 448.53,262.43 454.5,265 C495.15,282.55 509.51,275.99 549.5,295 C657.65,346.41 707.04,360.64 753.5,471 C793.78,566.67 610.46,606.45 534.85,618.62 " fill="none" id="Init-to-Error" style="stroke:#181818;stroke-width:1.0;"/><polygon fill="#181818" points="529.59,619.44,539.1003,622.0001,534.5299,618.6668,537.8632,614.0964,529.59,619.44" style="stroke:#181818;stroke-width:1.0;"/><text fill="#000000" font-family="sans-serif" font-size="13" lengthAdjust="spacing" textLength="48" x="739.5" y="437.4951">SetError</text></g><!--MD5=[6a512a76338606eb8b4f47556285f7a8]
link Init to InOpLevelOk--><g id="link_Init_InOpLevelOk"><path d="M399.35,265.29 C388.94,286.12 373.91,316.17 362.9,338.21 " fill="none" id="Init-to-InOpLevelOk" style="stroke:#181818;stroke-width:1.0;"/><polygon fill="#181818" points="360.61,342.78,368.2046,336.5093,362.8403,338.305,361.0446,332.9407,360.61,342.78" style="stroke:#181818;stroke-width:1.0;"/></g><!--MD5=[471e28e3934348dc48dd4662f0978191]
link Init to InOpLevelLow--><g id="link_Init_InOpLevelLow"><path d="M386.33,259.27 C325.55,303.38 170.51,415.89 98.85,467.89 " fill="none" id="Init-to-InOpLevelLow" style="stroke:#181818;stroke-width:1.0;"/><polygon fill="#181818" points="94.67,470.93,104.3039,468.8835,98.7174,467.9942,99.6067,462.4077,94.67,470.93" style="stroke:#181818;stroke-width:1.0;"/></g><!--MD5=[06298cb953596b374027ca26ab28b70d]
link Init to InOpLevelHigh--><g id="link_Init_InOpLevelHigh"><path d="M436.76,255.1 C486.68,282.99 593.22,342.52 593.5,343 C618.97,386.48 574.67,436.77 539.66,467.21 " fill="none" id="Init-to-InOpLevelHigh" style="stroke:#181818;stroke-width:1.0;"/><polygon fill="#181818" points="535.45,470.82,544.8865,467.9999,539.2463,467.566,539.6801,461.9259,535.45,470.82" style="stroke:#181818;stroke-width:1.0;"/></g><!--MD5=[f094a851252389ef2c17468ecb3ee551]
link InOpLevelOk to Idle--><g id="link_InOpLevelOk_Idle"><path d="M338.29,342.79 C330.29,322.45 319.82,292.39 315.5,265 C312.04,243.05 313,237.08 315.5,215 C317.96,193.25 315.48,185.91 326.5,167 C333.97,154.18 345.49,142.65 356.37,133.57 " fill="none" id="InOpLevelOk-to-Idle" style="stroke:#181818;stroke-width:1.0;"/><polygon fill="#181818" points="360.34,130.34,350.8373,132.928,356.4651,133.5,355.8932,139.1278,360.34,130.34" style="stroke:#181818;stroke-width:1.0;"/><text fill="#000000" font-family="sans-serif" font-size="13" lengthAdjust="spacing" textLength="51" x="316.5" y="245.4951">Enable⓪</text></g><!--MD5=[c3dda8985de90babd40541dc0a5818f6]
link InOpLevelOk to Error--><g id="link_InOpLevelOk_Error"><path d="M348.56,393.16 C349.67,424.74 355.26,480.73 379.5,521 C402.22,558.75 444.15,588.76 472.91,606.21 " fill="none" id="InOpLevelOk-to-Error" style="stroke:#181818;stroke-width:1.0;"/><polygon fill="#181818" points="477.41,608.9,471.7308,600.8535,473.1162,606.3381,467.6317,607.7235,477.41,608.9" style="stroke:#181818;stroke-width:1.0;"/><text fill="#000000" font-family="sans-serif" font-size="13" lengthAdjust="spacing" textLength="48" x="380.5" y="501.4951">SetError</text></g><!--MD5=[3e54b6b2ea3b1fe707975d6cb2d55ce7]
link InOpLevelOk to InOpLevelLow--><g id="link_InOpLevelOk_InOpLevelLow"><path d="M312.16,393.19 C293.73,409.08 271.17,429.07 247.5,441 C195.73,467.1 175.22,455.6 121.11,469.75 " fill="none" id="InOpLevelOk-to-InOpLevelLow" style="stroke:#181818;stroke-width:1.0;"/><polygon fill="#181818" points="116.12,471.11,125.8504,472.6327,120.9481,469.8101,123.7706,464.9078,116.12,471.11" style="stroke:#181818;stroke-width:1.0;"/></g><!--MD5=[279d60992b00318986acd60ec22f1543]
link InOpLevelLow to InOpLevelOk--><g id="link_InOpLevelLow_InOpLevelOk"><path d="M116.27,481.73 C128.07,478.03 140.21,474.17 151.5,471 C209.01,454.87 229.16,467.88 282.5,441 C304.14,430.09 324.84,412.46 338.13,397.37 " fill="none" id="InOpLevelLow-to-InOpLevelOk" style="stroke:#181818;stroke-width:1.0;"/><polygon fill="#181818" points="341.68,393.19,332.8123,397.4752,338.4496,397.0064,338.9185,402.6438,341.68,393.19" style="stroke:#181818;stroke-width:1.0;"/></g><!--MD5=[40c84ef98cfd0de67c86fe176d28c6f8]
link InOpLevelOk to InOpLevelHigh--><g id="link_InOpLevelOk_InOpLevelHigh"><path d="M368.08,393.29 C391.21,414.63 429.21,445.63 459.32,467.79 " fill="none" id="InOpLevelOk-to-InOpLevelHigh" style="stroke:#181818;stroke-width:1.0;"/><polygon fill="#181818" points="463.7,470.99,458.7973,462.4481,459.6644,468.0381,454.0743,468.9052,463.7,470.99" style="stroke:#181818;stroke-width:1.0;"/></g><!--MD5=[cecc02a90293539ae615e68f6e4089e6]
link InOpLevelHigh to InOpLevelOk--><g id="link_InOpLevelHigh_InOpLevelOk"><path d="M484.61,470.78 C461.77,449.54 423.95,418.67 393.71,396.5 " fill="none" id="InOpLevelHigh-to-InOpLevelOk" style="stroke:#181818;stroke-width:1.0;"/><polygon fill="#181818" points="389.3,393.29,394.2421,401.8091,393.3492,396.2232,398.9352,395.3304,389.3,393.29" style="stroke:#181818;stroke-width:1.0;"/></g><!--MD5=[6c147ceb7c53bcb2bd0fbf1caddf619d]
link InOpLevelLow to Idle--><g id="link_InOpLevelLow_Idle"><path d="M76.39,470.88 C112.25,413.91 208.17,268.2 311.5,167 C324.99,153.79 341.88,141.22 356.12,131.53 " fill="none" id="InOpLevelLow-to-Idle" style="stroke:#181818;stroke-width:1.0;"/><polygon fill="#181818" points="360.45,128.62,350.7467,130.3072,356.2963,131.4034,355.2001,136.953,360.45,128.62" style="stroke:#181818;stroke-width:1.0;"/><text fill="#000000" font-family="sans-serif" font-size="13" lengthAdjust="spacing" textLength="51" x="198.5" y="309.4951">Enable⓪</text></g><!--MD5=[eefa5f5e5152832f8692cb80a2bcc653]
link InOpLevelLow to Error--><g id="link_InOpLevelLow_Error"><path d="M116.11,515.32 C121.98,517.25 127.86,519.17 133.5,521 C201.31,542.94 217.24,552.21 286.5,569 C362.34,587.39 385.82,573.31 459.5,599 C463.84,600.51 468.27,602.43 472.56,604.51 " fill="none" id="InOpLevelLow-to-Error" style="stroke:#181818;stroke-width:1.0;"/><polygon fill="#181818" points="477.15,606.82,470.8987,599.2094,472.6807,604.5782,467.3119,606.3602,477.15,606.82" style="stroke:#181818;stroke-width:1.0;"/><text fill="#000000" font-family="sans-serif" font-size="13" lengthAdjust="spacing" textLength="48" x="287.5" y="565.4951">SetError</text></g><!--MD5=[525f6115d72341be765b8059e755b2bf]
link InOpLevelHigh to Idle--><g id="link_InOpLevelHigh_Idle"><path d="M559.82,475.82 C565.76,474.07 571.73,472.43 577.5,471 C615.59,461.59 726.22,471.01 751.5,441 C756.65,434.88 753.47,430.75 751.5,423 C725.59,321.03 717.02,285.02 638.5,215 C572.2,155.89 467.25,128.64 415.86,118.3 " fill="none" id="InOpLevelHigh-to-Idle" style="stroke:#181818;stroke-width:1.0;"/><polygon fill="#181818" points="410.76,117.29,418.8135,122.9594,415.6651,118.2596,420.3648,115.1112,410.76,117.29" style="stroke:#181818;stroke-width:1.0;"/><text fill="#000000" font-family="sans-serif" font-size="13" lengthAdjust="spacing" textLength="51" x="717.5" y="309.4951">Enable⓪</text></g><!--MD5=[90b2a8fdb6792c3130a7a4d4df1ba39c]
link InOpLevelHigh to Error--><g id="link_InOpLevelHigh_Error"><path d="M503.5,521.29 C503.5,541.95 503.5,571.67 503.5,593.65 " fill="none" id="InOpLevelHigh-to-Error" style="stroke:#181818;stroke-width:1.0;"/><polygon fill="#181818" points="503.5,598.78,507.5,589.78,503.5,593.78,499.5,589.78,503.5,598.78" style="stroke:#181818;stroke-width:1.0;"/><text fill="#000000" font-family="sans-serif" font-size="13" lengthAdjust="spacing" textLength="48" x="504.5" y="565.4951">SetError</text></g><!--MD5=[7d364e43dace9a2f8df92504d800134c]
link Error to Idle--><g id="link_Error_Idle"><path d="M529.53,619.59 C611.92,608.09 861.5,567.42 861.5,497 C861.5,239 861.5,239 861.5,239 C861.5,146.42 520.76,120.3 415.86,114.46 " fill="none" id="Error-to-Idle" style="stroke:#181818;stroke-width:1.0;"/><polygon fill="#181818" points="410.76,114.18,419.5299,118.662,415.7526,114.451,419.9636,110.6737,410.76,114.18" style="stroke:#181818;stroke-width:1.0;"/><text fill="#000000" font-family="sans-serif" font-size="13" lengthAdjust="spacing" textLength="51" x="862.5" y="373.4951">Enable⓪</text></g><!--MD5=[f0bcfd95fcb882c6f0c7584fef20d51c]
@startuml

[*] - -> Idle
Idle - -> Init : Enable①
note left of Idle
    InOperation := FALSE
    Error := FALSE
end note

Init - -> Idle : Enable⓪
Init - -> Error : SetError
Init - -> InOpLevelOk
Init - -> InOpLevelLow
Init - -> InOpLevelHigh
note right of Init
    InOperation := FALSE
    Error := FALSE
end note

InOpLevelOk - -> Idle : Enable⓪
InOpLevelOk - -> Error : SetError
InOpLevelOk - -> InOpLevelLow
InOpLevelOk - -> InOpLevelHigh
note right of InOpLevelOk
    InOperation := TRUE
    Error := FALSE
end note

InOpLevelLow - -> Idle : Enable⓪
InOpLevelLow - -> Error : SetError
InOpLevelLow - -> InOpLevelOk
note right of InOpLevelLow
    InOperation := TRUE
    Error := FALSE
end note

InOpLevelHigh - -> Idle : Enable⓪
InOpLevelHigh - -> Error : SetError
InOpLevelHigh - -> InOpLevelOk
note right of InOpLevelHigh
    InOperation := TRUE
    Error := FALSE
end note

Error - -> Idle : Enable⓪
note left of Error
    InOperation := FALSE
    Error := TRUE
end note


@enduml

PlantUML version 1.2022.7(Mon Aug 22 19:01:30 CEST 2022)
(GPL source distribution)
Java Runtime: Java(TM) SE Runtime Environment
JVM: Java HotSpot(TM) 64-Bit Server VM
Default Encoding: Cp1252
Language: en
Country: US
--></g></svg>